inDegrees=yes
name=ik_xsens_converted_data
DataType=double
version=3
OpenSimVersion=4.5-2023-11-26-efcdfd3eb
endheader
time	pelvis_tilt	pelvis_list	pelvis_rotation	pelvis_tx	pelvis_ty	pelvis_tz	hip_flexion_r	hip_adduction_r	hip_rotation_r	knee_angle_r	knee_angle_r_beta	ankle_angle_r	subtalar_angle_r	mtp_angle_r	hip_flexion_l	hip_adduction_l	hip_rotation_l	knee_angle_l	knee_angle_l_beta	ankle_angle_l	subtalar_angle_l	mtp_angle_l	lumbar_extension	lumbar_bending	lumbar_rotation	arm_flex_r	arm_add_r	arm_rot_r	elbow_flex_r	pro_sup_r	wrist_flex_r	wrist_dev_r	arm_flex_l	arm_add_l	arm_rot_l	elbow_flex_l	pro_sup_l	wrist_flex_l	wrist_dev_l
0	-0.002944465145450651	-0.01263681130127929	-157.7534764470399	0	0.93	0	4.692951335122609	-2.296393449420645	0	11.64528965889792	0.203248646896216	-1.368543774442798	0	0	4.692951335122609	-2.296393449420645	0	11.64528965889792	0.203248646896216	-1.368543774442798	0	0	-0.008781770929969923	-0.03922793426030374	-0.04040293788145329	-0.446398835826984	-0.09077092064159172	-0.4343650658781869	0.9091146640401556	0.9015614714887557	0	1.685986435969605	-0.4369772739793651	-0.1552722099827541	-0.4941023743848963	0.9036496712432499	0.9141178525639299	0	1.685986435969605
0.0167	-0.01293165296141596	-0.003245135471138902	-157.7691396418439	0	0.93	0	6.686140994156418	-3.224215544128679	0	14.52659748422187	0.2535369552115967	-1.905473687198627	0	0	6.686140994156418	-3.224215544128679	0	14.52659748422187	0.2535369552115967	-1.905473687198627	0	0	-0.01274041248499813	-0.00786458435376231	0.006532150115572004	-0.3362446597094746	-0.1000115439384932	-0.3280921314763196	0.6653587530056148	0.649889136859651	0	2.309140622153253	-0.3373998650898181	-0.1070166695751959	-0.3219792774947856	0.6566632863879448	0.6411485468787279	0	2.309140622153253
0.0333	-0.0009965100716171403	-0.0004040780937105168	-157.7468617211375	0	0.93	0	8.467617565865519	-4.005002741921906	0	16.90185993435627	0.2949931055654295	-2.343482958069628	0	0	8.467617565865519	-4.005002741921906	0	16.90185993435627	0.2949931055654295	-2.343482958069628	0	0	0.00598976310208333	-0.009245191802961227	-0.02486120843408094	-0.3030237004097228	-0.09008206516871133	-0.3033577980023919	0.5817821687264567	0.5981774837994108	0	2.791215192694358	-0.29890767250501	-0.08438346003474362	-0.30541800937159	0.5833480313511094	0.577063064622018	0	2.791215192694358
0.05	0.0007638302935098599	-0.005412406396767639	-157.7415631686386	0	0.93	0	9.685857366542534	-4.509955988394061	0	18.44351996880716	0.3219001491130068	-2.618843864295827	0	0	9.685857366542534	-4.509955988394061	0	18.44351996880716	0.3219001491130068	-2.618843864295827	0	0	-0.005952074049713546	-0.01704237250448187	-0.02644220656844551	-0.3005051926406214	-0.09227808370519736	-0.303278233490886	0.5863537480584413	0.5901148220357764	0	3.080715263137621	-0.29239905600192	-0.08492208132205607	-0.3168124535083368	0.5918418014437543	0.5777894808765003	0	3.080715263137621
0.0667	0.01037683409308785	-0.0008875421159884559	-157.7278857695597	0	0.93	0	10.81474141945471	-4.959465707403641	0	19.83761504611952	0.3462316982979523	-2.859213837333097	0	0	10.81474141945471	-4.959465707403641	0	19.83761504611952	0.3462316982979523	-2.859213837333097	0	0	-0.0006557345563472543	-0.01712232466155469	-0.0357098363556142	-0.297989487647371	-0.09046161242915314	-0.3066517763710218	0.5869004037113336	0.588790547462816	0	3.325902810867781	-0.2822767234059007	-0.0683113533303335	-0.3208015030875952	0.5841882089436541	0.5710212926972503	0	3.325902810867781
0.0833	0.0312032358401283	0.007904575979380169	-157.7396203029503	0	0.93	0	11.88228563834761	-5.366999293231006	0	21.12501739146493	0.3687011080221268	-3.072767632432993	0	0	11.88228563834761	-5.366999293231006	0	21.12501739146493	0.3687011080221268	-3.072767632432993	0	0	0.0876773680613302	-0.02972265156602626	-0.01500780168843177	-0.4171155517375689	-0.1105528571731155	-0.3440188939726995	0.6426007133252221	0.6442223973872556	0	3.537134866611187	-0.3875609858866242	-0.09833144722274222	-0.3646240029264727	0.6661454683494058	0.6273030083350775	0	3.537134866611187
0.1	0.0245935662761761	0.003320028483110046	-157.7440838559519	0	0.93	0	12.91280543849373	-5.744278776459919	0	22.34474718709698	0.3899894089405837	-3.266588461919593	0	0	12.91280543849373	-5.744278776459919	0	22.34474718709698	0.3899894089405837	-3.266588461919593	0	0	0.0529631270116727	-0.03578914907532876	-0.0006984507403884477	-0.3514312292016584	-0.08241198093964225	-0.3259819971617284	0.5806589559116352	0.577002893513228	0	3.723232955322611	-0.3286347016886093	-0.07864597050881895	-0.3564158643473032	0.5879129101410213	0.5691121097376629	0	3.723232955322611
0.1167	0.01297835980422731	-6.84710736137791e-06	-157.7428061252534	0	0.93	0	13.90507171041915	-6.091635497971426	0	23.49783421064062	0.4101145740634415	-3.441369912617389	0	0	13.90507171041915	-6.091635497971426	0	23.49783421064062	0.4101145740634415	-3.441369912617389	0	0	0.005023317888829532	-0.03966662592300237	0.0007251063510541776	-0.3217589870068325	-0.07628824759064093	-0.337218297883759	0.571470734367614	0.5715112130123502	0	3.885991220876105	-0.2822526947382362	-0.08072461611497632	-0.3855615918667207	0.5920842221525635	0.5674292146832376	0	3.885991220876105
